<?xml version="1.0"?>
<svg version="1.1" xmlns="http://www.w3.org/2000/svg" width="200px" height="50px" style=""><path fill="#12598c" d="M50.8935546875,35.3271484375q0-3.1787109375,0.28564453125-6.36474609375t1.19384765625-6.27685546875q0.263671875-0.9228515625,0.6884765625-1.82373046875t1.0400390625-1.60400390625t1.46484375-1.142578125t2.021484375-0.439453125l0.3076171875,0.029296875q1.259765625,0.17578125,1.8603515625,1.01806640625t0.6005859375,2.10205078125q0,0.3369140625-0.08056640625,0.84228515625t-0.25634765625,0.97412109375t-0.47607421875,0.79833984375t-0.75439453125,0.32958984375q-0.205078125-0.029296875-0.37353515625-0.0732421875t-0.31494140625-0.1904296875q0.234375-0.5126953125,0.41748046875-1.0693359375t0.18310546875-1.2744140625q0-0.263671875-0.0439453125-0.673828125t-0.16845703125-0.81298828125t-0.32958984375-0.703125t-0.5712890625-0.30029296875q-0.9228515625,0-1.552734375,1.03271484375t-1.0546875,2.63671875t-0.6298828125,3.544921875t-0.31494140625,3.75t-0.12451171875,3.2666015625t-0.0146484375,2.05810546875q0,0.703125-0.0146484375,1.552734375l0,0.1904296875q0.0146484375,0.7470703125,0.1025390625,1.4208984375q0.1171875,0.76171875,0.4541015625,1.318359375t1.0546875,0.64453125q0.2197265625,0.029296875,0.4248046875,0.029296875q0.849609375,0,1.5380859375-0.4833984375q0.849609375-0.6005859375,1.5087890625-1.56005859375t1.171875-2.109375t0.94482421875-2.17529296875t0.84228515625-1.69921875t0.849609375-0.673828125q0.146484375,0,0.439453125,0.05859375t0.29296875,0.2783203125q0,0.05859375-0.029296875,0.1611328125t-0.0732421875,0.1611328125q-0.3955078125,1.552734375-1.00341796875,3.22265625t-1.552734375,3.03955078125t-2.314453125,2.23388671875t-3.28857421875,0.8642578125q-1.376953125,0-2.23388671875-0.52001953125t-1.318359375-1.3916015625t-0.6298828125-1.97021484375t-0.16845703125-2.2265625z M66.533251953125,32.470703125l0-2.314453125q0-2.40234375,0.08056640625-4.76806640625t0.13916015625-4.76806640625q0-0.4541015625-0.029296875-1.0107421875q-0.0146484375-0.1611328125-0.0146484375-0.3076171875q0-0.3662109375,0.05859375-0.7177734375q0.0732421875-0.46875,0.35888671875-0.8056640625t0.94482421875-0.3369140625q0.5419921875,0,0.82763671875,0.1171875t0.40283203125,0.34423828125t0.1318359375,0.5712890625t0.0146484375,0.79833984375q0,2.431640625-0.05859375,4.8779296875q-0.0439453125,1.6259765625-0.0439453125,3.251953125q0,0.8203125,0.0146484375,1.640625q0.029296875,2.431640625,0.22705078125,4.86328125t0.66650390625,4.8046875q1.46484375-0.05859375,2.9296875-0.146484375t2.9296875-0.087890625q0.146484375,0,0.41748046875,0.029296875t0.5419921875,0.1025390625t0.46142578125,0.1904296875t0.1904296875,0.3369140625q0,0.146484375-0.1318359375,0.2490234375t-0.2490234375,0.1611328125l-0.029296875,0q-0.234375,0.1171875-0.93017578125,0.22705078125t-1.58203125,0.16845703125t-1.8603515625,0.1025390625t-1.8310546875,0.0732421875t-1.48681640625,0.0439453125t-0.7763671875,0.0146484375l-0.1318359375,0q-0.3515625,0-0.791015625-0.1171875q-0.52734375-0.146484375-0.6591796875-0.5712890625q-0.263671875-1.083984375-0.41748046875-2.24853515625t-0.234375-2.36572265625t-0.08056640625-2.40234375z M79.82919921875,29.6435546875q0-0.8642578125,0.09521484375-2.0947265625t0.3515625-2.5634765625t0.6884765625-2.6513671875t1.10595703125-2.3291015625t1.611328125-1.5966796875q0.7763671875-0.4833984375,1.787109375-0.4833984375q0.205078125,0,0.4248046875,0.029296875q2.548828125,0.234375,3.91845703125,1.16455078125t1.99951171875,2.3583984375t0.732421875,3.251953125t0.1025390625,3.84521484375q0,1.6259765625-0.30029296875,3.53759765625t-1.06201171875,3.56689453125t-2.10205078125,2.76123046875t-3.40576171875,1.10595703125q-1.259765625,0-2.20458984375-0.46142578125t-1.60400390625-1.23046875t-1.083984375-1.787109375t-0.64453125-2.109375t-0.31494140625-2.20458984375t-0.09521484375-2.109375z M82.80283203125,28.984375q0,0.6298828125,0.0146484375,1.54541015625t0.12451171875,1.92626953125t0.28564453125,2.01416015625t0.52001953125,1.82373046875t0.87158203125,1.34765625t1.2744140625,0.556640625l0.0732421875,0q0.673828125,0,1.201171875-0.5126953125q0.556640625-0.5419921875,0.98876953125-1.3037109375t0.7470703125-1.60400390625t0.56396484375-1.44287109375l-0.05859375,0.1318359375q0.4248046875-1.34765625,0.5712890625-2.76123046875t0.146484375-2.79052734375q0-0.6591796875-0.087890625-1.58935546875t-0.28564453125-1.94091796875t-0.5126953125-1.99951171875t-0.79833984375-1.72119140625t-1.1279296875-1.11328125q-0.46875-0.2783203125-1.0400390625-0.29296875q-0.2197265625,0-0.439453125,0.0439453125q-0.7470703125,0.146484375-1.2744140625,0.732421875t-0.85693359375,1.44287109375t-0.50537109375,1.875t-0.27099609375,2.05078125t-0.10986328125,1.9775390625t-0.0146484375,1.60400390625z M89.40927734375,33.49609375l0-0.029296875l0,0.029296875z M94.780419921875,19.1552734375q0-0.205078125,0.28564453125-0.31494140625t0.37353515625-0.10986328125l0.5419921875-0.087890625q0.5419921875-0.087890625,1.0986328125-0.15380859375t1.083984375-0.12451171875q1.8603515625-0.234375,3.720703125-0.46142578125t3.75-0.22705078125q0.146484375,0,0.40283203125,0.0146484375t0.5126953125,0.08056640625t0.439453125,0.18310546875t0.18310546875,0.322265625q0,0.146484375-0.13916015625,0.25634765625t-0.32958984375,0.16845703125t-0.38818359375,0.0732421875t-0.31494140625,0.0146484375l-0.25634765625,0t-0.25634765625-0.05859375q-0.7763671875,0-1.53076171875,0.0732421875t-1.53076171875,0.1318359375q0.205078125,0.234375,0.2197265625,0.6591796875t0.029296875,0.732421875q0,5.185546875,0.0732421875,10.3125t0.1318359375,10.3564453125l0,0.029296875q-0.4833984375,0.4248046875-0.82763671875,0.5419921875t-0.69580078125,0.1171875q-0.3369140625,0-0.68115234375-0.12451171875t-0.82763671875-0.53466796875l0-0.029296875l0.1171875-11.4990234375q0-1.142578125-0.029296875-2.51953125t-0.029296875-2.79052734375t0.0439453125-2.73193359375t0.234375-2.2998046875q-0.8642578125,0.087890625-1.8310546875,0.263671875q-0.8349609375,0.146484375-1.5966796875,0.146484375l-0.263671875,0q-0.05859375,0-0.34423828125,0.0146484375t-0.5859375-0.0146484375t-0.5419921875-0.1171875t-0.24169921875-0.29296875z M109.204296875,22.38525390625q-0.029296875-0.38818359375,0.06591796875-0.732421875t0.35888671875-0.5712890625t0.8935546875-0.22705078125q0.146484375,0,0.35888671875,0.029296875t0.4248046875,0.09521484375t0.34423828125,0.18310546875t0.1318359375,0.322265625q0,0.5419921875,0.03662109375,1.42822265625t0.09521484375,1.845703125t0.10986328125,1.875t0.09521484375,1.48681640625q1.142578125-0.05859375,2.2998046875-0.05859375t2.28515625-0.05859375l2.021484375-0.05859375l0-1.4501953125q0-2.431640625-0.09521484375-4.87060546875t-0.32958984375-4.87060546875q0-0.17578125,0.146484375-0.28564453125t0.34423828125-0.16845703125t0.41015625-0.0732421875t0.32958984375-0.0146484375q0.3369140625,0,0.72509765625,0.1025390625t0.44677734375,0.439453125l0.087890625,0.6298828125q0.3662109375,2.63671875,0.498046875,5.21484375t0.1904296875,5.15625q0.17578125,0.029296875,0.37353515625,0.09521484375t0.40283203125,0.12451171875q0.146484375,0.05859375,0.41748046875,0.17578125t0.27099609375,0.3662109375q0,0.234375-0.205078125,0.3662109375t-0.46142578125,0.19775390625t-0.498046875,0.08056640625t-0.30029296875,0.0146484375q0.029296875,1.083984375,0.029296875,2.16064453125l0,2.16064453125l0,4.7314453125l0,2.63671875q0,0.17578125-0.16845703125,0.31494140625t-0.40283203125,0.22705078125t-0.49072265625,0.1171875t-0.46142578125,0.029296875t-0.4833984375-0.029296875t-0.498046875-0.1171875t-0.38818359375-0.2197265625t-0.16845703125-0.322265625l0-0.6298828125q0.05859375-2.783203125,0.1318359375-5.51513671875t0.146484375-5.48583984375q-1.5966796875,0.05859375-3.24462890625,0.0732421875t-3.27392578125,0.0732421875q0.17578125,2.0654296875,0.40283203125,4.12353515625t0.47607421875,4.12353515625q0,0.17578125-0.16845703125,0.31494140625t-0.3955078125,0.22705078125t-0.4833984375,0.1171875t-0.46142578125,0.029296875q-0.4248046875,0-0.93017578125-0.146484375t-0.56396484375-0.5419921875q-0.17578125-1.552734375-0.32958984375-3.427734375t-0.27099609375-3.83056640625t-0.18310546875-3.83056640625t-0.06591796875-3.3984375q0-0.3662109375-0.029296875-0.75439453125z M125.94262695312,39.794921875q0.05859375-3.0615234375,0.25634765625-6.1083984375t0.34423828125-6.1083984375q0.029296875-1.171875,0.029296875-2.13134765625t0.09521484375-1.66259765625t0.3515625-1.07666015625t0.85693359375-0.37353515625q0.5126953125,0,0.7763671875,0.146484375t0.40283203125,0.37353515625t0.16845703125,0.5126953125t0.029296875,0.57861328125q0,0.4248046875,0.029296875,0.84228515625t0.029296875,0.84228515625q0,3.0908203125-0.16845703125,6.1669921875t-0.16845703125,6.1962890625q0,0.4541015625,0.0146484375,0.91552734375t0.0146484375,0.94482421875q0,0.17578125-0.1611328125,0.29296875t-0.40283203125,0.19775390625t-0.5126953125,0.10986328125t-0.44677734375,0.029296875q-0.205078125,0-0.46142578125-0.029296875t-0.498046875-0.12451171875t-0.41015625-0.22705078125t-0.16845703125-0.3076171875z M126.76293945312,19.931640625q0-0.146484375,0.0439453125-0.32958984375t0.1025390625-0.32958984375q0.029296875-0.17578125,0.087890625-0.6005859375t0.21240234375-0.82763671875t0.4248046875-0.7177734375t0.76904296875-0.31494140625l0.2783203125,0q0.234375,0.05859375,0.47607421875,0.146484375t0.24169921875,0.4248046875q0,0.146484375-0.0146484375,0.2783203125t-0.0439453125,0.29296875q-0.1171875,0.8642578125-0.22705078125,1.3623046875t-0.25634765625,0.75439453125t-0.37353515625,0.32958984375t-0.57861328125,0.1025390625q-0.1171875,0-0.31494140625-0.0146484375t-0.380859375-0.0732421875t-0.31494140625-0.18310546875t-0.1318359375-0.30029296875z M132.42705078125,37.5390625q0.087890625-2.373046875,0.15380859375-4.86328125t0.12451171875-4.91455078125t0.087890625-4.70947265625t0.029296875-4.2626953125q0.029296875-0.3955078125,0.6884765625-0.6298828125t1.57470703125-0.34423828125t1.93359375-0.13916015625t1.80908203125-0.029296875q0.17578125,0,0.732421875-0.0146484375l0.2783203125,0q0.4248046875,0,0.8935546875,0.029296875q0.615234375,0.0439453125,1.07666015625,0.1904296875t0.46142578125,0.4248046875q0,0.205078125-0.1611328125,0.32958984375t-0.37353515625,0.18310546875t-0.439453125,0.0732421875t-0.31494140625,0.0146484375q-1.376953125,0-2.724609375-0.0439453125q-0.3662109375-0.0146484375-0.7470703125-0.0146484375q-0.99609375,0-2.021484375,0.087890625q0.05859375,0.17578125,0.09521484375,1.06201171875t0.03662109375,1.99951171875t-0.0146484375,2.17529296875t0,1.63330078125l0,3.80859375q0.4541015625-0.029296875,0.8935546875-0.029296875l0.87890625,0l0.5859375-0.029296875q0.29296875-0.0146484375,0.615234375-0.0146484375q0.3369140625,0,0.6884765625,0.0146484375q0.703125,0.029296875,1.28173828125,0.16845703125t0.57861328125,0.49072265625q0,0.263671875-0.2197265625,0.38818359375t-0.49072265625,0.18310546875t-0.5126953125,0.05859375l-0.27099609375,0q-0.8349609375,0-1.73583984375-0.05859375t-1.67724609375-0.05859375q-0.146484375,0.05859375-0.31494140625,0.0439453125t-0.30029296875-0.0146484375q0,2.197265625-0.0439453125,4.37255859375t-0.1025390625,4.32861328125q0,0.4248046875-0.53466796875,0.556640625t-1.01806640625,0.1318359375q-0.5419921875,0-0.85693359375-0.1318359375t-0.44677734375-0.43212890625t-0.1611328125-0.79833984375q-0.0146484375-0.2783203125-0.029296875-0.615234375q0-0.2783203125,0.0146484375-0.6005859375z M144.40463867188,25.9228515625q0-0.5712890625,0.03662109375-1.67724609375t0.10986328125-2.30712890625t0.1904296875-2.24853515625t0.3369140625-1.50146484375q0.1171875-0.234375,0.35888671875-0.31494140625t0.47607421875-0.08056640625q0.146484375,0,0.49072265625,0.08056640625t0.34423828125,0.31494140625q0,0.3662109375-0.087890625,1.38427734375t-0.1611328125,2.33642578125t-0.1025390625,2.7392578125l0,0.6298828125q0,1.0693359375,0.0732421875,2.0068359375q0.1025390625,1.201171875,0.38818359375,1.9775390625t0.85693359375,0.7763671875q0.7763671875,0,1.4501953125-0.46142578125t1.23046875-1.201171875t1.00341796875-1.6552734375t0.76171875-1.8017578125t0.52734375-1.63330078125t0.30029296875-1.171875q0.087890625-0.4833984375,0.15380859375-1.2890625t0.21240234375-1.58203125t0.52001953125-1.34765625t1.09130859375-0.5712890625q0.4248046875,0,0.81298828125,0.146484375t0.50537109375,0.6298828125q-0.234375,0.8935546875-0.3955078125,2.48291015625t-0.25634765625,3.33251953125t-0.13916015625,3.37646484375t-0.0439453125,2.65869140625q0,1.142578125,0.029296875,2.79052734375t0.1025390625,3.40576171875t0.16845703125,3.42041015625t0.21240234375,2.77587890625q0.1171875,0.234375,0.1171875,0.5419921875q0,0.3662109375-0.146484375,0.5712890625t-0.40283203125,0.3076171875t-0.556640625,0.1318359375t-0.57861328125,0.029296875q-0.4248046875,0-0.94482421875-0.146484375t-0.63720703125-0.6005859375q-0.146484375-0.5419921875-0.24169921875-1.42822265625t-0.13916015625-1.93359375t-0.0732421875-2.18994140625t-0.029296875-2.18994140625t0.0146484375-1.9482421875t0.0146484375-1.47216796875q0-1.11328125,0.0439453125-2.18994140625t0.1025390625-2.18994140625q-0.3662109375,0.7470703125-0.85693359375,1.51611328125t-1.12060546875,1.39892578125t-1.40625,1.03271484375t-1.6845703125,0.40283203125q-1.171875,0-1.787109375-0.6298828125t-0.8935546875-1.56005859375t-0.31494140625-1.9775390625t-0.03662109375-1.89697265625z"/><path fill="#" d=""/></svg>
